<mxfile host="app.diagrams.net" modified="2022-12-02T16:07:19.978Z" agent="5.0 (Macintosh; Intel Mac OS X 10_14_6) AppleWebKit/537.36 (KHTML, like Gecko) Chrome/107.0.0.0 Safari/537.36" version="20.6.0" etag="NrxqiYct34nCwIuHbp5k" type="github">
  <diagram id="p0Xy5N5zpVVpFEQ9Z77o" name="第 1 页">
    <mxGraphModel dx="1720" dy="971" grid="1" gridSize="10" guides="1" tooltips="1" connect="1" arrows="1" fold="1" page="1" pageScale="1" pageWidth="827" pageHeight="1169" math="0" shadow="0">
      <root>
        <mxCell id="0" />
        <mxCell id="1" parent="0" />
        <mxCell id="obxV-kjS7VIb-wBGPzqt-4" value="" style="ellipse;shape=doubleEllipse;whiteSpace=wrap;html=1;aspect=fixed;fillColor=#fff2cc;strokeColor=#d6b656;strokeWidth=3;" vertex="1" parent="1">
          <mxGeometry x="120" y="160" width="480" height="480" as="geometry" />
        </mxCell>
        <mxCell id="obxV-kjS7VIb-wBGPzqt-7" value="节点A" style="ellipse;whiteSpace=wrap;html=1;aspect=fixed;fillColor=#f8cecc;strokeColor=#b85450;strokeWidth=3;fontSize=19;fontStyle=1" vertex="1" parent="1">
          <mxGeometry x="550" y="320" width="80" height="80" as="geometry" />
        </mxCell>
        <mxCell id="obxV-kjS7VIb-wBGPzqt-10" value="" style="ellipse;whiteSpace=wrap;html=1;aspect=fixed;fillColor=#d5e8d4;strokeColor=#82b366;" vertex="1" parent="1">
          <mxGeometry x="404" y="160" width="20" height="20" as="geometry" />
        </mxCell>
        <mxCell id="obxV-kjS7VIb-wBGPzqt-14" value="" style="ellipse;whiteSpace=wrap;html=1;aspect=fixed;fillColor=#d5e8d4;strokeColor=#82b366;" vertex="1" parent="1">
          <mxGeometry x="240" y="600" width="20" height="20" as="geometry" />
        </mxCell>
        <mxCell id="obxV-kjS7VIb-wBGPzqt-15" value="" style="ellipse;whiteSpace=wrap;html=1;aspect=fixed;fillColor=#d5e8d4;strokeColor=#82b366;" vertex="1" parent="1">
          <mxGeometry x="190" y="210" width="20" height="20" as="geometry" />
        </mxCell>
        <mxCell id="obxV-kjS7VIb-wBGPzqt-17" value="" style="endArrow=classic;html=1;rounded=0;entryX=0;entryY=0;entryDx=0;entryDy=0;exitX=1;exitY=1;exitDx=0;exitDy=0;strokeWidth=3;sketch=1;fillColor=#dae8fc;strokeColor=#6c8ebf;" edge="1" parent="1" source="obxV-kjS7VIb-wBGPzqt-10" target="obxV-kjS7VIb-wBGPzqt-7">
          <mxGeometry width="50" height="50" relative="1" as="geometry">
            <mxPoint x="470" y="190" as="sourcePoint" />
            <mxPoint x="550" y="320" as="targetPoint" />
          </mxGeometry>
        </mxCell>
        <mxCell id="obxV-kjS7VIb-wBGPzqt-21" value="节点B" style="ellipse;whiteSpace=wrap;html=1;aspect=fixed;fillColor=#f8cecc;strokeColor=#b85450;strokeWidth=3;fontSize=19;fontStyle=1" vertex="1" parent="1">
          <mxGeometry x="360" y="600" width="80" height="80" as="geometry" />
        </mxCell>
        <mxCell id="obxV-kjS7VIb-wBGPzqt-22" value="" style="ellipse;whiteSpace=wrap;html=1;aspect=fixed;fillColor=#d5e8d4;strokeColor=#82b366;" vertex="1" parent="1">
          <mxGeometry x="560" y="500" width="20" height="20" as="geometry" />
        </mxCell>
        <mxCell id="obxV-kjS7VIb-wBGPzqt-23" value="" style="endArrow=classic;html=1;rounded=0;exitX=0;exitY=1;exitDx=0;exitDy=0;entryX=1;entryY=0;entryDx=0;entryDy=0;strokeWidth=3;sketch=1;fillColor=#dae8fc;strokeColor=#6c8ebf;" edge="1" parent="1" source="obxV-kjS7VIb-wBGPzqt-22" target="obxV-kjS7VIb-wBGPzqt-21">
          <mxGeometry width="50" height="50" relative="1" as="geometry">
            <mxPoint x="620" y="480" as="sourcePoint" />
            <mxPoint x="670" y="430" as="targetPoint" />
          </mxGeometry>
        </mxCell>
        <mxCell id="obxV-kjS7VIb-wBGPzqt-25" value="节点C" style="ellipse;whiteSpace=wrap;html=1;aspect=fixed;fillColor=#f8cecc;strokeColor=#b85450;strokeWidth=3;fontStyle=1;fontSize=19;" vertex="1" parent="1">
          <mxGeometry x="80" y="400" width="80" height="80" as="geometry" />
        </mxCell>
        <mxCell id="obxV-kjS7VIb-wBGPzqt-32" value="" style="endArrow=classic;html=1;rounded=0;exitX=0;exitY=0;exitDx=0;exitDy=0;strokeWidth=3;sketch=1;fillColor=#dae8fc;strokeColor=#6c8ebf;" edge="1" parent="1" source="obxV-kjS7VIb-wBGPzqt-14" target="obxV-kjS7VIb-wBGPzqt-25">
          <mxGeometry width="50" height="50" relative="1" as="geometry">
            <mxPoint x="20" y="540" as="sourcePoint" />
            <mxPoint x="70" y="490" as="targetPoint" />
          </mxGeometry>
        </mxCell>
        <mxCell id="obxV-kjS7VIb-wBGPzqt-34" value="" style="endArrow=classic;html=1;rounded=0;exitX=1;exitY=1;exitDx=0;exitDy=0;entryX=0.014;entryY=0.312;entryDx=0;entryDy=0;entryPerimeter=0;sketch=1;strokeWidth=3;fillColor=#dae8fc;strokeColor=#6c8ebf;" edge="1" parent="1" source="obxV-kjS7VIb-wBGPzqt-15" target="obxV-kjS7VIb-wBGPzqt-7">
          <mxGeometry width="50" height="50" relative="1" as="geometry">
            <mxPoint x="90" y="230" as="sourcePoint" />
            <mxPoint x="140" y="180" as="targetPoint" />
          </mxGeometry>
        </mxCell>
        <mxCell id="obxV-kjS7VIb-wBGPzqt-35" value="" style="endArrow=classic;html=1;rounded=0;entryX=0.521;entryY=0;entryDx=0;entryDy=0;entryPerimeter=0;sketch=1;strokeWidth=2;" edge="1" parent="1" target="obxV-kjS7VIb-wBGPzqt-4">
          <mxGeometry width="50" height="50" relative="1" as="geometry">
            <mxPoint x="370" y="80" as="sourcePoint" />
            <mxPoint x="110" y="100" as="targetPoint" />
          </mxGeometry>
        </mxCell>
        <mxCell id="obxV-kjS7VIb-wBGPzqt-36" value="" style="endArrow=classic;html=1;rounded=0;entryX=0.521;entryY=0;entryDx=0;entryDy=0;entryPerimeter=0;sketch=1;strokeWidth=2;" edge="1" parent="1">
          <mxGeometry width="50" height="50" relative="1" as="geometry">
            <mxPoint x="350" y="80" as="sourcePoint" />
            <mxPoint x="350.0799999999999" y="160" as="targetPoint" />
          </mxGeometry>
        </mxCell>
        <mxCell id="obxV-kjS7VIb-wBGPzqt-37" value="0" style="text;strokeColor=none;fillColor=none;html=1;fontSize=24;fontStyle=1;verticalAlign=middle;align=center;sketch=0;" vertex="1" parent="1">
          <mxGeometry x="373" y="80" width="40" height="40" as="geometry" />
        </mxCell>
        <mxCell id="obxV-kjS7VIb-wBGPzqt-38" value="2^32-1" style="text;strokeColor=none;fillColor=none;html=1;fontSize=24;fontStyle=1;verticalAlign=middle;align=center;sketch=0;" vertex="1" parent="1">
          <mxGeometry x="290" y="80" width="40" height="40" as="geometry" />
        </mxCell>
        <mxCell id="obxV-kjS7VIb-wBGPzqt-41" value="key-4" style="text;strokeColor=none;fillColor=none;html=1;fontSize=15;fontStyle=1;verticalAlign=middle;align=center;sketch=0;strokeWidth=3;" vertex="1" parent="1">
          <mxGeometry x="140" y="190" width="50" height="30" as="geometry" />
        </mxCell>
        <mxCell id="obxV-kjS7VIb-wBGPzqt-42" value="key-1" style="text;strokeColor=none;fillColor=none;html=1;fontSize=15;fontStyle=1;verticalAlign=middle;align=center;sketch=0;strokeWidth=3;" vertex="1" parent="1">
          <mxGeometry x="430" y="140" width="50" height="30" as="geometry" />
        </mxCell>
        <mxCell id="obxV-kjS7VIb-wBGPzqt-43" value="key-2" style="text;strokeColor=none;fillColor=none;html=1;fontSize=15;fontStyle=1;verticalAlign=middle;align=center;sketch=0;strokeWidth=3;" vertex="1" parent="1">
          <mxGeometry x="590" y="490" width="50" height="30" as="geometry" />
        </mxCell>
        <mxCell id="obxV-kjS7VIb-wBGPzqt-44" value="key-3" style="text;strokeColor=none;fillColor=none;html=1;fontSize=15;fontStyle=1;verticalAlign=middle;align=center;sketch=0;strokeWidth=3;" vertex="1" parent="1">
          <mxGeometry x="200" y="625" width="50" height="30" as="geometry" />
        </mxCell>
      </root>
    </mxGraphModel>
  </diagram>
</mxfile>
